HIERARCHY
ROOT Character1_Hips
{
  OFFSET 0.11833 14.2511 -0.0476781
  CHANNELS 6 Xposition Yposition Zposition Zrotation Xrotation Yrotation
  JOINT Character1_LeftUpLeg
  {
    OFFSET 1.33984 -0.942851 0
    CHANNELS 6 Xposition Yposition Zposition Zrotation Xrotation Yrotation
    JOINT Character1_LeftLeg
    {
      OFFSET 1.03111 -5.48942 0.514162
      CHANNELS 6 Xposition Yposition Zposition Zrotation Xrotation Yrotation
      JOINT Character1_LeftFoot
      {
        OFFSET 0.584472 -7.37543 -1.61389
        CHANNELS 6 Xposition Yposition Zposition Zrotation Xrotation Yrotation
        JOINT Character1_LeftToeBase
        {
          OFFSET 0.308451 -0.815753 3.43202
          CHANNELS 6 Xposition Yposition Zposition Zrotation Xrotation Yrotation
          End Site
          {
            OFFSET 0 0 0
          }
        }
      }
    }
  }
  JOINT Character1_RightUpLeg
  {
    OFFSET -1.33984 -0.94285 0
    CHANNELS 6 Xposition Yposition Zposition Zrotation Xrotation Yrotation
    JOINT Character1_RightLeg
    {
      OFFSET -1.03111 -5.48942 0.514163
      CHANNELS 6 Xposition Yposition Zposition Zrotation Xrotation Yrotation
      JOINT Character1_RightFoot
      {
        OFFSET -0.584472 -7.37543 -1.61389
        CHANNELS 6 Xposition Yposition Zposition Zrotation Xrotation Yrotation
        JOINT Character1_RightToeBase
        {
          OFFSET -0.308452 -0.815752 3.43202
          CHANNELS 6 Xposition Yposition Zposition Zrotation Xrotation Yrotation
          End Site
          {
            OFFSET 0 0 0
          }
        }
      }
    }
  }
  JOINT Character1_Spine
  {
    OFFSET 0 1.05262 0
    CHANNELS 6 Xposition Yposition Zposition Zrotation Xrotation Yrotation
    JOINT Character1_Spine1
    {
      OFFSET 0 2.01813 0
      CHANNELS 6 Xposition Yposition Zposition Zrotation Xrotation Yrotation
      JOINT Character1_Spine2
      {
        OFFSET 0 2.01813 0
        CHANNELS 6 Xposition Yposition Zposition Zrotation Xrotation Yrotation
        JOINT Character1_LeftShoulder
        {
          OFFSET 1.05263 2.25701 0
          CHANNELS 6 Xposition Yposition Zposition Zrotation Xrotation Yrotation
          JOINT Character1_LeftArm
          {
            OFFSET 1.59242 -0.163556 -0.172858
            CHANNELS 6 Xposition Yposition Zposition Zrotation Xrotation Yrotation
            JOINT Character1_LeftForeArm
            {
              OFFSET 4.24546 -1.87778 -0.3255
              CHANNELS 6 Xposition Yposition Zposition Zrotation Xrotation Yrotation
              JOINT Character1_LeftHand
              {
                OFFSET 2.98615 -1.30582 0.326157
                CHANNELS 6 Xposition Yposition Zposition Zrotation Xrotation Yrotation
                JOINT Character1_LeftHandThumb1
                {
                  OFFSET 0.707167 -0.296378 0.777353
                  CHANNELS 6 Xposition Yposition Zposition Zrotation Xrotation Yrotation
                  JOINT Character1_LeftHandThumb2
                  {
                    OFFSET 0.248522 -0.159515 0.331579
                    CHANNELS 6 Xposition Yposition Zposition Zrotation Xrotation Yrotation
                    JOINT Character1_LeftHandThumb3
                    {
                      OFFSET 0.259195 -0.25406 0.227962
                      CHANNELS 6 Xposition Yposition Zposition Zrotation Xrotation Yrotation
                      JOINT Character1_LeftHandThumb4
                      {
                        OFFSET 0.226666 -0.258213 0.206782
                        CHANNELS 6 Xposition Yposition Zposition Zrotation Xrotation Yrotation
                        End Site
                        {
                          OFFSET 0 0 0
                        }
                      }
                    }
                  }
                }
                JOINT Character1_LeftHandIndex1
                {
                  OFFSET 1.48444 -0.354189 0.611986
                  CHANNELS 6 Xposition Yposition Zposition Zrotation Xrotation Yrotation
                  JOINT Character1_LeftHandIndex2
                  {
                    OFFSET 0.504725 -0.451989 0.0493915
                    CHANNELS 6 Xposition Yposition Zposition Zrotation Xrotation Yrotation
                    JOINT Character1_LeftHandIndex3
                    {
                      OFFSET 0.296442 -0.265512 0.0299122
                      CHANNELS 6 Xposition Yposition Zposition Zrotation Xrotation Yrotation
                      JOINT Character1_LeftHandIndex4
                      {
                        OFFSET 0.197651 -0.217278 0.0208589
                        CHANNELS 6 Xposition Yposition Zposition Zrotation Xrotation Yrotation
                        End Site
                        {
                          OFFSET 0 0 0
                        }
                      }
                    }
                  }
                }
                JOINT Character1_LeftHandMiddle1
                {
                  OFFSET 1.48537 -0.317032 0.21268
                  CHANNELS 6 Xposition Yposition Zposition Zrotation Xrotation Yrotation
                  JOINT Character1_LeftHandMiddle2
                  {
                    OFFSET 0.672059 -0.620936 0.0176339
                    CHANNELS 6 Xposition Yposition Zposition Zrotation Xrotation Yrotation
                    JOINT Character1_LeftHandMiddle3
                    {
                      OFFSET 0.264033 -0.321119 0.00884291
                      CHANNELS 6 Xposition Yposition Zposition Zrotation Xrotation Yrotation
                      JOINT Character1_LeftHandMiddle4
                      {
                        OFFSET 0.180854 -0.241265 0.0065838
                        CHANNELS 6 Xposition Yposition Zposition Zrotation Xrotation Yrotation
                        End Site
                        {
                          OFFSET 0 0 0
                        }
                      }
                    }
                  }
                }
                JOINT Character1_LeftHandRing1
                {
                  OFFSET 1.48599 -0.345214 -0.172737
                  CHANNELS 6 Xposition Yposition Zposition Zrotation Xrotation Yrotation
                  JOINT Character1_LeftHandRing2
                  {
                    OFFSET 0.522197 -0.611355 0.0123871
                    CHANNELS 6 Xposition Yposition Zposition Zrotation Xrotation Yrotation
                    JOINT Character1_LeftHandRing3
                    {
                      OFFSET 0.273491 -0.359549 0.00739137
                      CHANNELS 6 Xposition Yposition Zposition Zrotation Xrotation Yrotation
                      JOINT Character1_LeftHandRing4
                      {
                        OFFSET 0.175076 -0.230164 0.00473078
                        CHANNELS 6 Xposition Yposition Zposition Zrotation Xrotation Yrotation
                        End Site
                        {
                          OFFSET 0 0 0
                        }
                      }
                    }
                  }
                }
                JOINT Character1_LeftHandPinky1
                {
                  OFFSET 1.45006 -0.450851 -0.482262
                  CHANNELS 6 Xposition Yposition Zposition Zrotation Xrotation Yrotation
                  JOINT Character1_LeftHandPinky2
                  {
                    OFFSET 0.289756 -0.353118 -0.0298248
                    CHANNELS 6 Xposition Yposition Zposition Zrotation Xrotation Yrotation
                    JOINT Character1_LeftHandPinky3
                    {
                      OFFSET 0.271225 -0.36969 -0.0280321
                      CHANNELS 6 Xposition Yposition Zposition Zrotation Xrotation Yrotation
                      JOINT Character1_LeftHandPinky4
                      {
                        OFFSET 0.192972 -0.263027 -0.0199432
                        CHANNELS 6 Xposition Yposition Zposition Zrotation Xrotation Yrotation
                        End Site
                        {
                          OFFSET 0 0 0
                        }
                      }
                    }
                  }
                }
              }
            }
          }
        }
        JOINT Character1_RightShoulder
        {
          OFFSET -1.05263 2.25701 0
          CHANNELS 6 Xposition Yposition Zposition Zrotation Xrotation Yrotation
          JOINT Character1_RightArm
          {
            OFFSET -1.59242 -0.16355 -0.172859
            CHANNELS 6 Xposition Yposition Zposition Zrotation Xrotation Yrotation
            JOINT Character1_RightForeArm
            {
              OFFSET -4.24527 -1.87819 -0.32558
              CHANNELS 6 Xposition Yposition Zposition Zrotation Xrotation Yrotation
              JOINT Character1_RightHand
              {
                OFFSET -2.98614 -1.30584 0.326119
                CHANNELS 6 Xposition Yposition Zposition Zrotation Xrotation Yrotation
                JOINT Character1_RightHandThumb1
                {
                  OFFSET -0.707168 -0.296376 0.777353
                  CHANNELS 6 Xposition Yposition Zposition Zrotation Xrotation Yrotation
                  JOINT Character1_RightHandThumb2
                  {
                    OFFSET -0.248522 -0.159517 0.33158
                    CHANNELS 6 Xposition Yposition Zposition Zrotation Xrotation Yrotation
                    JOINT Character1_RightHandThumb3
                    {
                      OFFSET -0.259194 -0.254063 0.227961
                      CHANNELS 6 Xposition Yposition Zposition Zrotation Xrotation Yrotation
                      JOINT Character1_RightHandThumb4
                      {
                        OFFSET -0.226667 -0.258211 0.206782
                        CHANNELS 6 Xposition Yposition Zposition Zrotation Xrotation Yrotation
                        End Site
                        {
                          OFFSET 0 0 0
                        }
                      }
                    }
                  }
                }
                JOINT Character1_RightHandIndex1
                {
                  OFFSET -1.48444 -0.354191 0.611986
                  CHANNELS 6 Xposition Yposition Zposition Zrotation Xrotation Yrotation
                  JOINT Character1_RightHandIndex2
                  {
                    OFFSET -0.504725 -0.451986 0.049391
                    CHANNELS 6 Xposition Yposition Zposition Zrotation Xrotation Yrotation
                    JOINT Character1_RightHandIndex3
                    {
                      OFFSET -0.296442 -0.265513 0.0299126
                      CHANNELS 6 Xposition Yposition Zposition Zrotation Xrotation Yrotation
                      JOINT Character1_RightHandIndex4
                      {
                        OFFSET -0.197651 -0.21728 0.0208599
                        CHANNELS 6 Xposition Yposition Zposition Zrotation Xrotation Yrotation
                        End Site
                        {
                          OFFSET 0 0 0
                        }
                      }
                    }
                  }
                }
                JOINT Character1_RightHandMiddle1
                {
                  OFFSET -1.48537 -0.317029 0.212679
                  CHANNELS 6 Xposition Yposition Zposition Zrotation Xrotation Yrotation
                  JOINT Character1_RightHandMiddle2
                  {
                    OFFSET -0.67206 -0.620937 0.0176342
                    CHANNELS 6 Xposition Yposition Zposition Zrotation Xrotation Yrotation
                    JOINT Character1_RightHandMiddle3
                    {
                      OFFSET -0.264032 -0.321119 0.00884241
                      CHANNELS 6 Xposition Yposition Zposition Zrotation Xrotation Yrotation
                      JOINT Character1_RightHandMiddle4
                      {
                        OFFSET -0.180854 -0.241264 0.00658415
                        CHANNELS 6 Xposition Yposition Zposition Zrotation Xrotation Yrotation
                        End Site
                        {
                          OFFSET 0 0 0
                        }
                      }
                    }
                  }
                }
                JOINT Character1_RightHandRing1
                {
                  OFFSET -1.48599 -0.345215 -0.172738
                  CHANNELS 6 Xposition Yposition Zposition Zrotation Xrotation Yrotation
                  JOINT Character1_RightHandRing2
                  {
                    OFFSET -0.522198 -0.611355 0.0123873
                    CHANNELS 6 Xposition Yposition Zposition Zrotation Xrotation Yrotation
                    JOINT Character1_RightHandRing3
                    {
                      OFFSET -0.273489 -0.359548 0.00739135
                      CHANNELS 6 Xposition Yposition Zposition Zrotation Xrotation Yrotation
                      JOINT Character1_RightHandRing4
                      {
                        OFFSET -0.175077 -0.230166 0.00473123
                        CHANNELS 6 Xposition Yposition Zposition Zrotation Xrotation Yrotation
                        End Site
                        {
                          OFFSET 0 0 0
                        }
                      }
                    }
                  }
                }
                JOINT Character1_RightHandPinky1
                {
                  OFFSET -1.45006 -0.450852 -0.482263
                  CHANNELS 6 Xposition Yposition Zposition Zrotation Xrotation Yrotation
                  JOINT Character1_RightHandPinky2
                  {
                    OFFSET -0.289757 -0.353119 -0.029824
                    CHANNELS 6 Xposition Yposition Zposition Zrotation Xrotation Yrotation
                    JOINT Character1_RightHandPinky3
                    {
                      OFFSET -0.271225 -0.369691 -0.028032
                      CHANNELS 6 Xposition Yposition Zposition Zrotation Xrotation Yrotation
                      JOINT Character1_RightHandPinky4
                      {
                        OFFSET -0.192971 -0.263025 -0.0199443
                        CHANNELS 6 Xposition Yposition Zposition Zrotation Xrotation Yrotation
                        End Site
                        {
                          OFFSET 0 0 0
                        }
                      }
                    }
                  }
                }
              }
            }
          }
        }
        JOINT Character1_Neck
        {
          OFFSET 0 2.01813 0
          CHANNELS 6 Xposition Yposition Zposition Zrotation Xrotation Yrotation
          JOINT Character1_Head
          {
            OFFSET 0 3.0075 0
            CHANNELS 6 Xposition Yposition Zposition Zrotation Xrotation Yrotation
            End Site
            {
              OFFSET 0 0 0
            }
          }
        }
      }
    }
  }
}
MOTION
Frames:	2
Frame Time:	0.0166667
0.209151 14.2682 0.0517678 -5.32792 1.27787 -5.10397 1.33984 -0.942852 -1.94184e-007 -0.973356 11.8532 3.56801 1.03111 -5.48942 0.514163 7.99389 41.204 4.25808 0.584472 -7.37543 -1.61389 2.50346 20.2642 0.602851 0.308452 -0.81575 3.43203 -1.28624e-005 -3.71977e-005 1.27986e-005 -1.33984 -0.942852 1.95333e-007 6.41784 -26.4769 7.43893 -1.03111 -5.48942 0.514162 1.47462 11.0557 -2.99893 -0.584472 -7.37542 -1.61389 0.455527 -9.71227 0.724185 -0.308452 -0.815752 3.43202 -1.91425e-013 2.74257e-005 1.713e-015 -7.11605e-007 1.05262 -1.28785e-007 4.7232 -0.188486 6.42566 -1.00224e-008 2.01813 -8.55239e-008 0.20867 -0.706738 2.45855 4.40065e-009 2.01813 -8.04744e-008 0.155381 -0.720974 2.45846 1.05263 2.25701 6.67446e-008 -0.557043 -0.06629 -0.059825 1.59242 -0.163557 -0.172858 -20.7437 -9.14659 -43.1998 4.24534 -1.87803 -0.325595 -17.1703 -29.9813 -65.4263 2.98614 -1.30584 0.326132 -0.399856 -5.01967 2.18004 0.707168 -0.296377 0.777355 0.000141116 1.37145e-005 -3.8401e-006 0.248521 -0.159516 0.331579 -0.000119411 -6.72601e-005 -5.6722e-005 0.259195 -0.254061 0.227961 -2.60348e-005 2.5591e-005 7.77006e-006 0.226667 -0.258213 0.206783 -9.22184e-005 4.5116e-005 1.19809e-005 1.48444 -0.354189 0.611988 0.000141116 1.37145e-005 -3.8401e-006 0.504724 -0.451989 0.0493906 -0.000119411 -6.72601e-005 -5.6722e-005 0.296443 -0.265513 0.0299121 -2.60348e-005 2.5591e-005 7.77006e-006 0.197651 -0.217277 0.0208603 -9.22184e-005 4.5116e-005 1.19809e-005 1.48537 -0.317032 0.21268 0.000141116 1.37145e-005 -3.8401e-006 0.672059 -0.620936 0.0176339 -0.000119411 -6.72601e-005 -5.6722e-005 0.264033 -0.321119 0.00884321 -2.60348e-005 2.5591e-005 7.77006e-006 0.180854 -0.241265 0.00658371 -9.22184e-005 4.5116e-005 1.19809e-005 1.48599 -0.345215 -0.172738 0.000141116 1.37145e-005 -3.8401e-006 0.522198 -0.611356 0.0123872 -0.000119411 -6.72601e-005 -5.6722e-005 0.273491 -0.35955 0.00739179 -2.60348e-005 2.5591e-005 7.77006e-006 0.175076 -0.230164 0.00473133 -9.22184e-005 4.5116e-005 1.19809e-005 1.45006 -0.450852 -0.482263 0.000141116 1.37145e-005 -3.8401e-006 0.289756 -0.353117 -0.0298239 -0.000119411 -6.72601e-005 -5.6722e-005 0.271225 -0.36969 -0.0280323 -2.60348e-005 2.5591e-005 7.77006e-006 0.192971 -0.263027 -0.019943 -9.22184e-005 4.5116e-005 1.19809e-005 -1.05263 2.25701 6.88338e-008 -5.94181e-010 1.28458e-007 4.03242e-006 -1.59242 -0.163552 -0.172859 49.7048 11.6327 -43.859 -4.24524 -1.87827 -0.325589 7.91383 4.28655 51.0915 -2.98613 -1.30586 0.326134 0.335929 -4.38703 -1.9083 -0.707168 -0.296375 0.777353 -6.0533e-005 1.1188e-005 -1.91941e-005 -0.248522 -0.159517 0.33158 0.000109302 2.67119e-006 1.04764e-005 -0.259194 -0.254063 0.227961 -0.000216187 1.62847e-005 -3.72959e-005 -0.226668 -0.258211 0.206782 -3.30546e-005 -1.24566e-005 2.22892e-005 -1.48444 -0.354191 0.611987 -6.0533e-005 1.1188e-005 -1.91941e-005 -0.504725 -0.451986 0.0493907 0.000109302 2.67119e-006 1.04764e-005 -0.296442 -0.265513 0.0299126 -0.000216187 1.62847e-005 -3.72959e-005 -0.197651 -0.21728 0.0208598 -3.30546e-005 -1.24566e-005 2.22892e-005 -1.48537 -0.317029 0.212679 -6.0533e-005 1.1188e-005 -1.91941e-005 -0.672061 -0.620938 0.0176342 0.000109302 2.67119e-006 1.04764e-005 -0.264032 -0.32112 0.00884238 -0.000216187 1.62847e-005 -3.72959e-005 -0.180854 -0.241265 0.00658416 -3.30546e-005 -1.24566e-005 2.22892e-005 -1.48599 -0.345215 -0.172738 -6.0533e-005 1.1188e-005 -1.91941e-005 -0.522198 -0.611355 0.0123874 0.000109302 2.67119e-006 1.04764e-005 -0.273489 -0.359549 0.00739127 -0.000216187 1.62847e-005 -3.72959e-005 -0.175077 -0.230166 0.0047313 -3.30546e-005 -1.24566e-005 2.22892e-005 -1.45006 -0.450851 -0.482263 -6.0533e-005 1.1188e-005 -1.91941e-005 -0.289757 -0.353119 -0.029824 0.000109302 2.67119e-006 1.04764e-005 -0.271226 -0.369691 -0.0280319 -0.000216187 1.62847e-005 -3.72959e-005 -0.192971 -0.263026 -0.0199443 -3.30546e-005 -1.24566e-005 2.22892e-005 -9.99309e-009 2.01813 2.05023e-007 4.31637e-006 1.88308e-007 -5.05652 9.09962e-009 3.0075 -2.96978e-007 -1.07471e-007 -6.23528e-008 -5.05629 
0.189138 14.267 0.03795 -4.44469 1.11226 -4.63833 1.33984 -0.942849 -1.94151e-007 -0.635634 8.63947 3.01122 1.03111 -5.48941 0.514162 7.06815 44.0695 4.81006 0.584472 -7.37543 -1.61389 3.64579 10.324 -0.300437 0.308451 -0.815751 3.43202 -1.29854e-005 -3.69154e-005 1.27866e-005 -1.33984 -0.94285 1.95366e-007 5.45969 -27.69 7.17922 -1.03111 -5.48942 0.514163 1.68698 15.1647 -3.11231 -0.584472 -7.37543 -1.61389 0.371892 -7.70348 0.56347 -0.308452 -0.815752 3.43202 -1.88549e-013 2.80812e-005 -5.35525e-015 -4.95201e-007 1.05262 -1.28758e-007 3.84957 -0.203779 5.8173 -1.00323e-008 2.01813 -8.55603e-008 0.186439 -0.636475 2.21256 4.35721e-009 2.01813 -8.04783e-008 0.138452 -0.649185 2.21252 1.05263 2.25701 6.68364e-008 -0.557043 -0.06629 -0.059825 1.59242 -0.163556 -0.172858 -22.7975 -6.67947 -40.4528 4.24674 -1.87455 -0.327431 -14.829 -28.6992 -60.1764 2.98615 -1.30584 0.326112 -0.415285 -5.24088 2.27532 0.707167 -0.296378 0.777354 0.000133045 1.36776e-005 -3.86593e-006 0.248522 -0.159516 0.331579 -0.000117817 -6.6009e-005 -5.81639e-005 0.259194 -0.254062 0.22796 -2.63085e-005 2.55086e-005 7.78398e-006 0.226667 -0.258213 0.206784 -8.45026e-005 4.54904e-005 2.05721e-005 1.48444 -0.354189 0.611988 0.000133045 1.36776e-005 -3.86593e-006 0.504725 -0.451989 0.0493906 -0.000117817 -6.6009e-005 -5.81639e-005 0.296443 -0.265513 0.0299121 -2.63085e-005 2.55086e-005 7.78398e-006 0.197651 -0.217278 0.0208602 -8.45026e-005 4.54904e-005 2.05721e-005 1.48537 -0.317032 0.21268 0.000133045 1.36776e-005 -3.86593e-006 0.672059 -0.620936 0.0176333 -0.000117817 -6.6009e-005 -5.81639e-005 0.264032 -0.32112 0.00884217 -2.63085e-005 2.55086e-005 7.78398e-006 0.180853 -0.241265 0.00658406 -8.45026e-005 4.54904e-005 2.05721e-005 1.48599 -0.345215 -0.172738 0.000133045 1.36776e-005 -3.86593e-006 0.522197 -0.611356 0.0123866 -0.000117817 -6.6009e-005 -5.81639e-005 0.273491 -0.35955 0.00739091 -2.63085e-005 2.55086e-005 7.78398e-006 0.175076 -0.230164 0.00473207 -8.45026e-005 4.54904e-005 2.05721e-005 1.45006 -0.450852 -0.482263 0.000133045 1.36776e-005 -3.86593e-006 0.289756 -0.353118 -0.0298244 -0.000117817 -6.6009e-005 -5.81639e-005 0.271225 -0.36969 -0.0280314 -2.63085e-005 2.55086e-005 7.78398e-006 0.192972 -0.263027 -0.0199435 -8.45026e-005 4.54904e-005 2.05721e-005 -1.05263 2.25701 6.89261e-008 -6.98294e-010 1.27425e-007 4.02447e-006 -1.59242 -0.163551 -0.172859 49.4893 11.594 -38.2586 -4.24525 -1.87825 -0.325581 8.30566 2.15206 47.7576 -2.98613 -1.30586 0.326146 0.302017 -3.92953 -1.71093 -0.707168 -0.296375 0.777353 -9.10577e-005 1.12984e-005 -1.90766e-005 -0.248521 -0.159517 0.331579 8.93298e-005 3.07277e-006 1.07796e-005 -0.259194 -0.254063 0.227961 -0.000211159 1.65705e-005 -3.72718e-005 -0.226667 -0.258211 0.206782 -3.27376e-005 -1.24334e-005 2.22762e-005 -1.48444 -0.35419 0.611986 -9.10577e-005 1.12984e-005 -1.90766e-005 -0.504725 -0.451986 0.0493907 8.93298e-005 3.07277e-006 1.07796e-005 -0.296442 -0.265513 0.0299126 -0.000211159 1.65705e-005 -3.72718e-005 -0.197651 -0.217279 0.0208598 -3.27376e-005 -1.24334e-005 2.22762e-005 -1.48537 -0.317028 0.212679 -9.10577e-005 1.12984e-005 -1.90766e-005 -0.67206 -0.620938 0.0176342 8.93298e-005 3.07277e-006 1.07796e-005 -0.264031 -0.321119 0.00884237 -0.000211159 1.65705e-005 -3.72718e-005 -0.180854 -0.241265 0.00658416 -3.27376e-005 -1.24334e-005 2.22762e-005 -1.48599 -0.345213 -0.172738 -9.10577e-005 1.12984e-005 -1.90766e-005 -0.522197 -0.611355 0.0123874 8.93298e-005 3.07277e-006 1.07796e-005 -0.273489 -0.359549 0.00739124 -0.000211159 1.65705e-005 -3.72718e-005 -0.175076 -0.230165 0.00473131 -3.27376e-005 -1.24334e-005 2.22762e-005 -1.45006 -0.450851 -0.482262 -9.10577e-005 1.12984e-005 -1.90766e-005 -0.289757 -0.353119 -0.029824 8.93298e-005 3.07277e-006 1.07796e-005 -0.271225 -0.36969 -0.0280319 -0.000211159 1.65705e-005 -3.72718e-005 -0.192971 -0.263026 -0.0199443 -3.27376e-005 -1.24334e-005 2.22762e-005 -9.97281e-009 2.01813 2.04989e-007 4.31554e-006 1.88409e-007 -4.55087 9.09776e-009 3.0075 -2.96965e-007 -1.06475e-007 -6.24743e-008 -4.55066 
